# AST/ASF file generated using VICON BodyLanguage
# -----------------------------------------------
:version 1.10
:name VICON
:units
  mass 1.0
  length 0.45
  angle deg
:documentation
   .ast/.asf automatically generated from VICON data using
   VICON BodyBuilder and BodyLanguage model FoxedUp or BRILLIANT.MOD
:root
   order TX TY TZ RX RY RZ
   axis XYZ
   position 0 0 0  
   orientation 0 0 0 
:bonedata
  begin
     id 1 
     name lhipjoint
     direction 0.521452 -0.77106 0.36545 
     length 2.0933 
     axis 0 0 0  XYZ
  end
  begin
     id 2 
     name lfemur
     direction 0.34202 -0.939693 0  
     length 6.83441  
     axis 0 0 20  XYZ
    dof rx ry rz
    limits (-160.0 20.0)
           (-70.0 70.0)
           (-60.0 70.0)
  end
  begin
     id 3 
     name ltibia
     direction 0.34202 -0.939693 0   
     length 7.28749   
     axis 0 0 20   XYZ
    dof rx
    limits (-10.0 170.0)
  end
  begin
     id 4 
     name lfoot
     direction 0.100608 -0.276418 0.955757   
     length 1.52195   
     axis -90 7.62852e-016 20   XYZ
    dof rx rz
    limits (-45.0 90.0)
           (-70.0 20.0)
  end
  begin
     id 5 
     name ltoes
     direction 1.53558e-011 -4.21907e-011 1   
     length 0.770459   
     axis -90 7.62852e-016 20   XYZ
    dof rx
    limits (-90.0 20.0)
  end
  begin
     id 6 
     name rhipjoint
     direction -0.488071 -0.788702 0.373812   
     length 2.04648  
     axis 0 0 0  XYZ 
  end
  begin
     id 7 
     name rfemur
     direction -0.34202 -0.939693 0   
     length 6.92583   
     axis 0 0 -20   XYZ
    dof rx ry rz
    limits (-160.0 20.0)
           (-70.0 70.0)
           (-70.0 60.0)
  end
  begin
     id 8 
     name rtibia
     direction -0.34202 -0.939693 0   
     length 7.41043   
     axis 0 0 -20   XYZ
    dof rx
    limits (-10.0 170.0)
 end
 begin
     id 9 
     name rfoot
     direction -0.0784433 -0.215521 0.973343   
     length 1.67708  
     axis -90 -7.62852e-016 -20   XYZ
    dof rx rz
    limits (-45.0 90.0)
           (-20.0 70.0)
  end
  begin
     id 10 
     name rtoes
     direction -1.53551e-011 -4.21842e-011 1   
     length 0.849787   
     axis -90 -7.62852e-016 -20   XYZ
    dof rx
    limits (-90.0 20.0)
  end
  begin
     id 11 
     name lowerback
     direction -0.0122332 0.997575 -0.0685192   
     length 1.98724   
     axis 0 0 0   XYZ
    dof rx ry rz
    limits (-20.0 45.0)
           (-30.0 30.0)
           (-30.0 30.0)
  end
  begin
     id 12 
     name upperback
     direction 0.0182347 0.999724 -0.0148421   
     length 1.99029   
     axis 0 0 0   XYZ
    dof rx ry rz
    limits (-20.0 45.0)
           (-30.0 30.0)
           (-30.0 30.0)
  end
  begin
     id 13 
     name thorax
     direction 0.0242908 0.99956 0.0170184   
     length 1.99573   
     axis 0 0 0   XYZ
    dof rx ry rz
    limits (-20.0 45.0)
           (-30.0 30.0)
           (-30.0 30.0)
  end
  begin
     id 14 
     name lowerneck
     direction 0.0654488 0.985533 0.156338   
     length 1.4285   
     axis 0 0 0   XYZ
    dof rx ry rz
    limits (-20.0 45.0)
           (-30.0 30.0)
           (-30.0 30.0)
  end
  begin
     id 15 
     name upperneck
     direction -0.02953 0.998556 -0.0448842   
     length 1.44709   
     axis 0 0 0   XYZ
    dof rx ry rz
    limits (-20.0 45.0)
           (-30.0 30.0)
           (-30.0 30.0)
  end
  begin
     id 16
     name head
     direction -0.0155588 0.999386 -0.0314063  
     length 1.44689  
     axis 0 0 0   XYZ
    dof rx ry rz
    limits (-20.0 45.0)
           (-30.0 30.0)
           (-30.0 30.0)
  end
  begin
     id 17 
     name lclavicle
     direction 0.968229 0.236071 -0.0824755  
     length 3.60593  
     axis 0 0 0   XYZ
    dof ry rz
    limits (-20.0 10.0)
           (0.0 20.0)
  end
  begin
     id 18 
     name lhumerus
     direction 1 -4.48968e-011 7.8138e-029   
     length 5.06035   
     axis 180 -30 -90   XYZ
    dof rx ry rz
    limits (-60.0 90.0)
           (-90.0 90.0)
           (-90.0 90.0)
  end
  begin
     id 19
     name lradius
     direction 1 -4.48967e-011 9.02887e-028   
     length 3.1478   
     axis 180 -30 -90   XYZ
    dof rx
    limits (-10.0 170.0)
  end
  begin
     id 20
     name lwrist
     direction 1 -4.48961e-011 7.20928e-028   
     length 1.5739   
     axis -5.52449e-016 90 90   XYZ
    dof ry
    limits (-180.0 0.0)
 end
  begin
     id 21 
     name lhand
     direction 1 -4.48972e-011 1.44186e-027   
     length 0.606747   
     axis -9.20027e-016 90 90   XYZ
    dof rx rz
    limits (-90.0 90.0)
           (-45.0 45.0)
  end
  begin
     id 22 
     name lfingers
     direction 1 -4.48943e-011 2.88371e-027   
     length 0.489175   
     axis -1.84005e-015 90 90   XYZ
    dof rx
    limits (0.0 90.0)
  end
  begin
     id 23
     name lthumb
     direction 0.707107 -6.34917e-011 0.707107   
     length 0.70236   
     axis -90 45 2.85299e-015   XYZ
    dof rx rz
    limits (-45.0 45.0)
           (-45.0 45.0)
  end
  begin
     id 24 
     name rclavicle
     direction -0.978165 0.207816 0.0022268   
     length 3.35425  
     axis 0 0 0   XYZ 
    dof ry rz
    limits (-10.0 20.0)
           (-20.0 0.0)
  end
  begin
     id 25 
     name rhumerus
     direction -1 -4.48964e-011 -4.02159e-027  
     length 5.12273   
     axis 180 30 90   XYZ
    dof rx ry rz
    limits (-90.0 60.0)
           (-90.0 90.0)
           (-90.0 90.0)
  end
  begin
     id 26 
     name rradius
     direction -1 -4.48966e-011 1.62746e-027   
     length 3.422   
     axis 180 30 90   XYZ
    dof rx
    limits (-10.0 170.0)
  end
  begin
     id 27 
     name rwrist
     direction -1 -4.4896e-011 7.20928e-028   
     length 1.711   
     axis -5.52449e-016 -90 -90   XYZ
    dof ry
    limits (-180.0 0.0)
  end
  begin
     id 28
     name rhand
     direction -1 -4.48979e-011 1.44186e-027   
     length 0.704599   
     axis -9.20027e-016 -90 -90   XYZ
    dof rx rz
    limits (-90.0 90.0)
           (-45.0 45.0)
  end
  begin
     id 29
     name rfingers
     direction -1 -4.48962e-011 2.88371e-027   
     length 0.568066   
     axis -1.84005e-015 -90 -90   XYZ
    dof rx
    limits (0.0 90.0)
  end
  begin
     id 30
     name rthumb
     direction -0.707107 -6.34949e-011 0.707107   
     length 0.815633   
     axis -90 -45 -2.85299e-015   XYZ
    dof rx rz
    limits (-45.0 45.0)
           (-45.0 45.0)
  end
:hierarchy
  begin
    root lhipjoint rhipjoint lowerback
    lhipjoint lfemur
    lfemur ltibia
    ltibia lfoot
    lfoot ltoes
    rhipjoint rfemur
    rfemur rtibia
    rtibia rfoot
    rfoot rtoes
    lowerback upperback
    upperback thorax
    thorax lowerneck lclavicle rclavicle
    lowerneck upperneck
    upperneck head
    lclavicle lhumerus
    lhumerus lradius
    lradius lwrist
    lwrist lhand lthumb
    lhand lfingers
    rclavicle rhumerus
    rhumerus rradius
    rradius rwrist
    rwrist rhand rthumb
    rhand rfingers
  end

#!OML:ASF E:\id_vita\Project 1\Capture day 1\Session 1\Male1.ASF
:FULLY-SPECIFIED
:DEGREES
119
root -6.83669 26.8982 -1.69866 -0.378948 83.2303 -7.26309
lowerback 1.82983 -1.40217 -5.04737
upperback 2.11962 -1.89925 0.714852
thorax 1.34689 -1.01996 3.57463
lowerneck -1.62213 3.25548 5.04185
upperneck 6.42385 4.09872 2.10032
head 2.36657 2.24252 -0.0826413
rclavicle -1.05356e-014 -1.47101e-014
rhumerus -37.7396 -12.1556 -81.2873
rradius 24.5073
rwrist 2.78732
rhand -20.5153 39.2201
rfingers 7.12502
rthumb 5.84234 9.32064
lclavicle -1.05356e-014 -1.47101e-014
lhumerus -21.7322 10.8736 82.5418
lradius 19.0193
lwrist -4.31066
lhand -14.2041 43.688
lfingers 7.12502
lthumb 11.9323 73.328
rfemur -31.1738 1.80559 14.6572
rtibia 42.8977
rfoot -15.3432 -2.83754
rtoes -1.975
lfemur -5.65391 3.13092 -23.1925
ltibia 26.6333
lfoot -29.609 3.81071
ltoes 32.2976
120
root -6.79955 26.8979 -1.69915 -0.169854 83.0388 -7.1657
lowerback 1.94891 -1.28549 -4.97455
upperback 2.09673 -1.749 0.62979
thorax 1.23608 -0.939587 3.4493
lowerneck -1.93158 3.19085 5.34274
upperneck 6.45177 3.98333 2.01365
head 2.44081 2.19218 -0.158347
rclavicle 1.15295e-014 -2.78299e-015
rhumerus -37.9245 -12.1698 -81.3947
rradius 24.5977
rwrist 2.51105
rhand -20.6339 38.5358
rfingers 7.12502
rthumb 5.72778 8.63322
lclavicle 1.15295e-014 -2.78299e-015
lhumerus -21.6836 10.4081 82.6039
lradius 19.1502
lwrist -4.14049
lhand -14.3729 43.5786
lfingers 7.12502
lthumb 11.7696 73.2279
rfemur -31.4764 1.95275 14.8706
rtibia 41.9837
rfoot -15.0774 -2.88774
rtoes -1.03738
lfemur -5.4195 3.00556 -23.2479
ltibia 26.2385
lfoot -29.4844 4.18126
ltoes 31.8722
121
root -6.75698 26.9015 -1.70045 0.374446 82.9876 -6.70222
lowerback 1.4286 -1.2604 -4.89241
upperback 2.47993 -1.67205 0.5045
thorax 1.90977 -0.920772 3.25519
lowerneck -2.12131 3.19573 5.58154
upperneck 6.04739 3.97829 1.93433
head 2.34916 2.18231 -0.225302
rclavicle -3.67752e-015 1.19271e-015
rhumerus -37.4538 -12.6427 -81.4753
rradius 24.4827
rwrist 2.7061
rhand -20.3163 38.2247
rfingers 7.12502
rthumb 6.03442 8.33067
lclavicle -3.67752e-015 1.19271e-015
lhumerus -21.0578 10.2925 82.5936
lradius 19.1524
lwrist -4.25998
lhand -14.4935 43.1396
lfingers 7.12502
lthumb 11.6532 72.7955
rfemur -31.6537 1.90023 15.0196
rtibia 41.0108
rfoot -14.9902 -2.80746
rtoes 0.881928
lfemur -5.15537 2.88478 -23.3436
ltibia 25.8924
lfoot -29.4499 4.37367
ltoes 31.9707
122
root -6.71673 26.9099 -1.69872 0.128455 82.9582 -6.96772
lowerback 1.69367 -1.25937 -4.91429
upperback 2.39271 -1.68857 0.574918
thorax 1.67535 -0.923064 3.34791
lowerneck -2.21999 3.22434 5.51986
upperneck 6.1632 4.00869 1.9375
head 2.4046 2.19945 -0.210046
rclavicle -4.57205e-015 7.95139e-015
rhumerus -37.6 -12.7863 -81.2221
rradius 24.2912
rwrist 3.02081
rhand -19.8913 38.2414
rfingers 7.12502
rthumb 6.44479 8.35941
lclavicle -4.57205e-015 7.95139e-015
lhumerus -21.2687 10.0425 82.6718
lradius 19.3584
lwrist -4.03256
lhand -14.4718 42.8346
lfingers 7.12502
lthumb 11.6742 72.4893
rfemur -31.7453 1.70706 15.3284
rtibia 39.953
rfoot -14.8775 -2.63739
rtoes 2.50757
lfemur -4.83537 2.83942 -23.3176
ltibia 25.528
lfoot -29.3757 4.39621
ltoes 31.8557
123
root -6.67019 26.916 -1.6967 -1.4986 82.6021 -8.55463
lowerback 1.70334 -1.22091 -4.73359
upperback 2.46633 -1.63564 0.674035
thorax 1.73808 -0.897202 3.3482
lowerneck -2.22372 3.31312 5.40618
upperneck 6.17287 4.12624 2.03814
head 2.40502 2.25831 -0.155123
rclavicle 2.26615e-014 -6.75868e-015
rhumerus -37.5458 -12.6628 -81.186
rradius 24.1192
rwrist 3.17606
rhand -20.3425 37.8248
rfingers 7.12502
rthumb 6.00919 7.92998
lclavicle 2.26615e-014 -6.75868e-015
lhumerus -21.3319 9.90861 82.7508
lradius 19.5225
lwrist -3.64024
lhand -14.3423 42.6395
lfingers 7.12502
lthumb 11.799 72.2871
rfemur -31.8024 1.83501 15.8363
rtibia 38.8333
rfoot -14.7173 -2.36666
rtoes 4.50102
lfemur -4.37854 2.78297 -23.1395
ltibia 25.1204
lfoot -29.2915 4.79602
ltoes 31.4788
124
root -6.63037 26.9202 -1.69457 -1.51339 82.5584 -8.63379
lowerback 1.9411 -1.24739 -4.83615
upperback 2.27871 -1.69161 0.793974
thorax 1.42348 -0.917841 3.53819
lowerneck -1.87251 3.35132 5.3509
upperneck 6.09189 4.20922 1.98413
head 2.31531 2.29299 -0.167708
rclavicle 1.28216e-014 -3.18055e-015
rhumerus -37.9756 -12.3456 -80.9972
rradius 24.1767
rwrist 3.07563
rhand -20.7038 37.5085
rfingers 7.12502
rthumb 5.66034 7.60405
lclavicle 1.28216e-014 -3.18055e-015
lhumerus -21.6776 9.90067 82.8749
lradius 19.5776
lwrist -3.43448
lhand -14.5229 42.5015
lfingers 7.12502
lthumb 11.6249 72.1591
rfemur -31.9671 1.78053 16.0843
rtibia 37.686
rfoot -14.4483 -2.16226
rtoes 6.21765
lfemur -4.10139 2.74923 -23.1356
ltibia 24.7332
lfoot -29.1481 4.83736
ltoes 31.4191
125
root -6.59152 26.9199 -1.69208 -0.184573 82.6386 -7.36578
lowerback 2.00128 -1.30104 -4.95302
upperback 2.26517 -1.76674 0.726931
thorax 1.38494 -0.955183 3.53639
lowerneck -1.77267 3.41029 5.49629
upperneck 5.93056 4.29809 1.88352
head 2.25216 2.33288 -0.225103
rclavicle -1.28216e-014 1.07344e-014
rhumerus -38.0604 -12.5059 -80.9042
rradius 24.0143
rwrist 3.29808
rhand -20.576 37.9279
rfingers 7.12502
rthumb 5.78375 8.02682
lclavicle -1.28216e-014 1.07344e-014
lhumerus -21.6635 9.5974 82.8595
lradius 19.5695
lwrist -3.25528
lhand -14.8282 42.4934
lfingers 7.12502
lthumb 11.3305 72.1674
rfemur -32.1161 1.53089 16.1748
rtibia 36.5473
rfoot -14.127 -2.30983
rtoes 5.62651
lfemur -3.83596 2.68133 -23.317
ltibia 24.3635
lfoot -29.0814 4.62144
ltoes 31.4969
126
root -6.54898 26.9196 -1.68651 0.221974 82.6406 -7.04203
lowerback 1.96706 -1.38054 -4.96765
upperback 2.26608 -1.87119 0.735163
thorax 1.41623 -1.00859 3.55225
lowerneck -1.80722 3.55163 5.47152
upperneck 5.87169 4.48905 1.81021
head 2.244 2.42327 -0.238782
rclavicle 1.58034e-014 1.03368e-014
rhumerus -38.0048 -12.5359 -80.8036
rradius 23.6094
rwrist 3.66978
rhand -20.7506 38.3205
rfingers 7.12502
rthumb 5.61519 8.41489
lclavicle 1.58034e-014 1.03368e-014
lhumerus -21.7325 9.48452 82.8309
lradius 19.6485
lwrist -3.17067
lhand -14.798 42.4346
lfingers 7.12502
lthumb 11.3595 72.107
rfemur -32.2368 1.37645 16.4211
rtibia 35.452
rfoot -13.9305 -2.71267
rtoes 4.03093
lfemur -3.558 2.57159 -23.3627
ltibia 23.9743
lfoot -28.976 4.66037
ltoes 31.4323
127
root -6.50243 26.9186 -1.68174 0.499753 82.498 -6.85687
lowerback 1.76744 -1.23569 -4.8999
upperback 2.568 -1.65502 0.669597
thorax 1.81456 -0.912782 3.4371
lowerneck -2.63888 3.31779 5.60919
upperneck 6.01671 4.09761 1.99532
head 2.43529 2.24462 -0.198393
rclavicle 4.07509e-015 3.97569e-016
rhumerus -37.551 -13.3355 -80.6553
rradius 23.311
rwrist 4.13287
rhand -21.0703 38.2438
rfingers 7.12502
rthumb 5.30645 8.3302
lclavicle 4.07509e-015 3.97569e-016
lhumerus -21.0843 9.02716 83.0231
lradius 19.64
lwrist -3.10241
lhand -14.6055 42.2637
lfingers 7.12502
lthumb 11.5453 71.9257
rfemur -32.4001 1.2598 16.7046
rtibia 34.381
rfoot -13.7 -2.92961
rtoes 2.5339
lfemur -3.2977 2.46278 -23.417
ltibia 23.6174
lfoot -28.8065 5.13355
ltoes 31.1623
128
root -6.45139 26.9163 -1.67663 1.04428 82.2576 -6.39075
lowerback 2.12505 -1.24777 -4.88074
upperback 2.01966 -1.70996 0.6758
thorax 1.05233 -0.913435 3.44968
lowerneck -1.37746 3.32169 5.49726
upperneck 5.84086 4.20631 2.00101
head 2.1462 2.28711 -0.198671
rclavicle 9.64106e-015 -1.19271e-014
rhumerus -38.7138 -13.0791 -80.3408
rradius 23.3864
rwrist 4.18193
rhand -19.4291 39.5271
rfingers 7.12502
rthumb 6.89093 9.65928
lclavicle 9.64106e-015 -1.19271e-014
lhumerus -22.3038 8.96176 82.8691
lradius 19.8651
lwrist -2.9495
lhand -14.7327 42.0071
lfingers 7.12502
lthumb 11.4226 71.676
rfemur -32.5583 1.16448 16.9527
rtibia 33.3107
rfoot -13.4115 -3.02874
rtoes 1.7993
lfemur -3.0348 2.44571 -23.5154
ltibia 23.3374
lfoot -28.7371 5.48156
ltoes 30.8812
129
root -6.4179 26.9216 -1.66251 1.08469 82.2915 -6.64221
lowerback 1.18317 -1.32537 -4.83944
upperback 2.43591 -1.75093 0.633047
thorax 2.01193 -0.963281 3.35197
lowerneck -1.0754 3.35047 5.56983
upperneck 5.22429 4.27817 2.01466
head 1.89309 2.30613 -0.216974
rclavicle -2.37548e-014 -4.37326e-015
rhumerus -38.0232 -13.5269 -80.4657
rradius 23.2072
rwrist 4.39732
rhand -18.8093 39.8053
rfingers 7.12502
rthumb 7.48919 9.95784
lclavicle -2.37548e-014 -4.37326e-015
lhumerus -21.6133 8.87083 82.865
lradius 19.8391
lwrist -2.78289
lhand -14.8252 42.3137
lfingers 7.12502
lthumb 11.3333 71.9874
rfemur -32.9212 1.30157 17.1634
rtibia 32.2574
rfoot -13.1086 -3.43819
rtoes 2.69173
lfemur -3.10556 2.57885 -23.4105
ltibia 23.0691
lfoot -28.5591 5.25964
ltoes 30.7319
130
root -6.38172 26.9247 -1.65068 1.43841 81.8581 -6.77021
lowerback 1.59267 -1.16061 -5.05847
upperback 1.86291 -1.5763 0.815489
thorax 1.18587 -0.852098 3.68297
lowerneck -1.38708 3.33287 5.43353
upperneck 5.95151 4.21814 2.04271
head 2.18177 2.29575 -0.173085
rclavicle -1.32192e-014 -3.18055e-015
rhumerus -38.7723 -13.3295 -80.0755
rradius 23.3821
rwrist 4.39121
rhand -19.1202 39.257
rfingers 7.12502
rthumb 7.18913 9.3991
lclavicle -1.32192e-014 -3.18055e-015
lhumerus -22.2669 8.83507 83.0355
lradius 19.969
lwrist -2.68562
lhand -14.8321 42.8038
lfingers 7.12502
lthumb 11.3266 72.478
rfemur -33.5818 1.68469 17.3834
rtibia 31.2481
rfoot -12.8428 -3.69899
rtoes 3.17387
lfemur -3.33968 2.92871 -23.3979
ltibia 22.7533
lfoot -28.3964 5.39555
ltoes 30.3658
131
root -6.3408 26.929 -1.64017 2.61396 81.7052 -5.93051
lowerback 0.783354 -1.16681 -5.13442
upperback 2.2571 -1.52774 0.742125
thorax 2.04304 -0.857537 3.62672
lowerneck -1.84361 3.425 5.4347
upperneck 5.70232 4.30925 2.10449
head 2.18209 2.33713 -0.146068
rclavicle -1.56046e-014 1.07344e-014
rhumerus -38.0459 -13.5631 -80.2915
rradius 23.2853
rwrist 4.55962
rhand -19.8884 38.1393
rfingers 7.12502
rthumb 6.44753 8.25743
lclavicle -1.56046e-014 1.07344e-014
lhumerus -21.4364 8.82425 83.0598
lradius 19.8418
lwrist -2.63141
lhand -15.119 42.5007
lfingers 7.12502
lthumb 11.05 72.1898
rfemur -34.0239 1.70755 17.4559
rtibia 30.2833
rfoot -12.605 -3.92363
rtoes 3.08752
lfemur -3.40292 3.06691 -23.5336
ltibia 22.4221
lfoot -28.2421 5.47968
ltoes 29.8823
132
root -6.27765 26.9311 -1.63275 2.83124 81.4231 -5.62897
lowerback 0.843975 -1.06331 -4.93874
upperback 2.2293 -1.39192 0.588447
thorax 1.95646 -0.781589 3.36133
lowerneck -1.64776 3.45507 5.3858
upperneck 5.53448 4.35969 2.36028
head 2.08416 2.36319 -0.0616773
rclavicle 2.34566e-014 9.14409e-015
rhumerus -38.3061 -13.6253 -80.3881
rradius 23.2219
rwrist 4.47709
rhand -21.1806 36.3386
rfingers 7.12502
rthumb 5.19998 6.42244
lclavicle 2.34566e-014 9.14409e-015
lhumerus -21.7694 8.43151 82.895
lradius 20.0125
lwrist -2.50555
lhand -15.1815 42.3365
lfingers 7.12502
lthumb 10.9897 72.0288
rfemur -33.9609 1.84039 17.5861
rtibia 29.4362
rfoot -12.6193 -3.89535
rtoes 3.46725
lfemur -2.82159 2.96954 -23.6206
ltibia 21.9575
lfoot -28.1766 5.82831
ltoes 29.7864
